<svg id="Layer_1" data-name="Layer 1" xmlns="http://www.w3.org/2000/svg" viewBox="0 0 500 500"><defs><style>.cls-1{fill:#ffd400;}</style></defs><title>Artboard 1</title><polygon points="416.79 216.52 334.48 74.01 169.9 74.04 87.64 216.59 169.95 359.1 334.53 359.07 416.79 216.52"/><path class="cls-1" d="M163.89,369.61l-88.39-153L163.83,63.53l176.71,0,88.39,153L340.6,369.58Zm-64.12-153,76.25,132,152.45,0,76.2-132-76.25-132L176,84.55Z"/><path class="cls-1" d="M216.06,257.61l-31.36-.23.69-94.08,31.36.23Zm62.49,31.81L215.83,289l.23-31.36,62.72.46ZM279.46,164l-62.72-.46.23-31.36,62.72.46Zm-.91,125.43,31.36.23L309.68,321l-31.36-.23Zm31.59-31.13-31.36-.23.69-94.08,31.36.23Z"/><path d="M167.81,404.35H162.7V389h5.11ZM178,389H167.81V383.9H178Zm0,20.46H167.81v-5.11H178Zm5.11-5.11H178V389h5.11ZM178,409.47h5.11v5.11H178Z"/><path d="M193.38,383.9h5.11v20.46h-5.11Zm15.34,25.57H198.49v-5.11h10.23Zm0-25.57h5.11v20.46h-5.11Z"/><path d="M239.4,389H229.17v5.11H239.4v5.11H229.17v5.11H239.4v5.11H224.06V383.9H239.4Z"/><path d="M265,389H254.74v5.11H265v5.11H254.74v5.11H265v5.11H249.63V383.9H265Z"/><path d="M275.2,409.47V383.9h5.11v25.57ZM280.31,389h5.11v5.11h-5.11Zm5.11,5.11h5.11v5.11h-5.11Zm5.11,5.11h5.11v5.11h-5.11Zm5.11,10.23V383.9h5.11v25.57Z"/><path d="M334.94,389H324.71v5.11h10.23v5.11H324.71v5.11h10.23v5.11H319.6V383.9h15.34Zm5.11,0v5.11h-5.11V389Zm0,10.23v5.11h-5.11v-5.11Z"/><path d="M162.7,438V416.84h12.67v4.22h-8.45v4.22h8.45v4.22h-8.45V438Zm8.45-8.45h4.22v4.22h-4.22Zm4.22-8.45h4.22v4.22h-4.22Zm0,12.67h4.22V438h-4.22Z"/><path d="M192.25,433.73H188V421.07h4.22Zm8.45-12.67h-8.45v-4.22h8.45Zm0,16.89h-8.45v-4.22h8.45Zm4.22-4.22H200.7V421.07h4.22Z"/><path d="M226,421.07h-8.45v4.22H226v4.22h-8.45v4.22H226V438H213.37V416.84H226Zm4.22,0v4.22H226v-4.22Zm0,8.45v4.22H226v-4.22Z"/><path d="M242.93,433.73h-4.22V421.07h4.22Zm8.45-12.67h-8.45v-4.22h8.45Zm0,16.89h-8.45v-4.22h8.45Zm4.22-4.22h-4.22V421.07h4.22Z"/><path d="M268.27,438V421.07H264v-4.22h12.67v4.22h-4.22V438Z"/><path d="M285.16,438V416.84h4.22V438Z"/><path d="M302.05,433.73h-4.22V421.07h4.22Zm8.45-12.67h-8.45v-4.22h8.45Zm0,16.89h-8.45v-4.22h8.45Zm4.22-12.67H310.5v-4.22h4.22Zm0,8.45H310.5v-4.22h4.22Z"/><path d="M323.17,421.07h4.22v4.22h-4.22Zm0,16.89v-4.22h12.67V438Zm4.22-16.89v-4.22h12.67v4.22Zm0,8.45h8.45v-4.22h-8.45Zm8.45,0h4.22v4.22h-4.22Z"/></svg>